<svg width="400" height="160" viewBox="0 0 400 160" fill="none" xmlns="http://www.w3.org/2000/svg">
<g clip-path="url(#clip0_41_167)">
<rect width="400" height="160" fill="#73ABFF"/>
<g clip-path="url(#clip1_41_167)">
<rect width="400" height="80" fill="white"/>
<rect y="60" width="40" height="40" transform="rotate(-90 0 60)" fill="#91F288"/>
<rect x="360" y="60" width="40" height="40" transform="rotate(-90 360 60)" fill="#91F288"/>
<rect x="40" width="320" height="20" fill="#91F288"/>
<rect x="40" y="60" width="320" height="20" fill="#91F288"/>
</g>
<g clip-path="url(#clip2_41_167)">
<rect width="400" height="80" transform="translate(0 80)" fill="white"/>
<rect y="100" width="20" height="40" fill="#91F288"/>
<rect x="180" y="100" width="20" height="40" fill="#91F288"/>
<rect x="20" y="100" width="20" height="160" transform="rotate(-90 20 100)" fill="#91F288"/>
<rect x="20" y="160" width="20" height="160" transform="rotate(-90 20 160)" fill="#91F288"/>
<rect x="200" y="100" width="20" height="40" fill="#91F288"/>
<rect x="220" y="100" width="20" height="160" transform="rotate(-90 220 100)" fill="#91F288"/>
<rect x="220" y="160" width="20" height="160" transform="rotate(-90 220 160)" fill="#91F288"/>
<rect x="380" y="100" width="20" height="40" fill="#91F288"/>
</g>
</g>
<defs>
<clipPath id="clip0_41_167">
<rect width="400" height="160" fill="white"/>
</clipPath>
<clipPath id="clip1_41_167">
<rect width="400" height="80" fill="white"/>
</clipPath>
<clipPath id="clip2_41_167">
<rect width="400" height="80" fill="white" transform="translate(0 80)"/>
</clipPath>
</defs>
</svg>
